HIERARCHY
ROOT Hips
{
 OFFSET 0.000000 0.000000 0.000000
 CHANNELS 6 Xposition Yposition Zposition Yrotation Xrotation Zrotation
 JOINT Chest
 {
  OFFSET 0.000000 9.585900 0.002600
  CHANNELS 3 Yrotation Xrotation Zrotation
  JOINT Chest2
  {
   OFFSET 0.000000 9.601200 -0.005300
   CHANNELS 3 Yrotation Xrotation Zrotation
   JOINT Chest3
   {
    OFFSET 0.000000 9.561800 0.000000
    CHANNELS 3 Yrotation Xrotation Zrotation
    JOINT Chest4
    {
     OFFSET 0.000000 9.552100 0.000000
     CHANNELS 3 Yrotation Xrotation Zrotation
     JOINT Neck
     {
      OFFSET 0.000000 14.453000 0.000000
      CHANNELS 3 Yrotation Xrotation Zrotation
      JOINT Head
      {
       OFFSET 0.000000 8.936500 -0.011300
       CHANNELS 3 Yrotation Xrotation Zrotation
       End Site
       {
        OFFSET 0.000000 17.073600 -0.006000
       }
      }
     }
     JOINT RightCollar
     {
      OFFSET -2.921100 9.558500 0.000000
      CHANNELS 3 Yrotation Xrotation Zrotation
      JOINT RightShoulder
      {
       OFFSET -13.519700 0.000000 0.000000
       CHANNELS 3 Yrotation Xrotation Zrotation
       JOINT RightElbow
       {
        OFFSET 0.000000 -29.696600 0.000000
        CHANNELS 3 Yrotation Xrotation Zrotation
        JOINT RightWrist
        {
         OFFSET 0.000000 -24.004700 0.000000
         CHANNELS 3 Yrotation Xrotation Zrotation
         End Site
         {
          OFFSET 0.000000 -17.728500 0.000000
         }
        }
       }
      }
     }
     JOINT LeftCollar
     {
      OFFSET 2.921100 9.558500 0.000000
      CHANNELS 3 Yrotation Xrotation Zrotation
      JOINT LeftShoulder
      {
       OFFSET 13.519700 0.000000 0.000000
       CHANNELS 3 Yrotation Xrotation Zrotation
       JOINT LeftElbow
       {
        OFFSET 0.000000 -29.696600 0.000000
        CHANNELS 3 Yrotation Xrotation Zrotation
        JOINT LeftWrist
        {
         OFFSET 0.000000 -24.004700 0.000000
         CHANNELS 3 Yrotation Xrotation Zrotation
         End Site
         {
          OFFSET 0.000000 -17.728500 0.000000
         }
        }
       }
      }
     }
    }
   }
  }
 }
 JOINT RightHip
 {
  OFFSET -7.771700 -0.012900 -0.001300
  CHANNELS 3 Yrotation Xrotation Zrotation
  JOINT RightKnee
  {
   OFFSET 0.000000 -40.869800 0.001200
   CHANNELS 3 Yrotation Xrotation Zrotation
   JOINT RightAnkle
   {
    OFFSET 0.000000 -39.717900 0.002100
    CHANNELS 3 Yrotation Xrotation Zrotation
    JOINT RightToe
    {
     OFFSET 0.000000 -4.965400 11.033500
     CHANNELS 3 Yrotation Xrotation Zrotation
     End Site
     {
      OFFSET 0.000000 -1.423100 5.872300
     }
    }
   }
  }
 }
 JOINT LeftHip
 {
  OFFSET 7.771700 -0.012900 -0.001300
  CHANNELS 3 Yrotation Xrotation Zrotation
  JOINT LeftKnee
  {
   OFFSET 0.000000 -40.869800 0.001200
   CHANNELS 3 Yrotation Xrotation Zrotation
   JOINT LeftAnkle
   {
    OFFSET 0.000000 -39.717900 0.002100
    CHANNELS 3 Yrotation Xrotation Zrotation
    JOINT LeftToe
    {
     OFFSET 0.000000 -4.965400 11.033500
     CHANNELS 3 Yrotation Xrotation Zrotation
     End Site
     {
      OFFSET 0.000000 -1.423100 5.872300
     }
    }
   }
  }
 }
}
MOTION
Frames: 14
Frame Time: 0.008333
0.000000 85.388000 0.000000 0.000000 -5.767877 0.000000 0.000000 11.653817 0.000000 0.000000 -5.885947 0.000000 0.000000 -0.000000 0.000000 0.000000 -0.000000 0.000000 0.000000 12.528835 0.000000 0.000000 0.711642 0.000000 0.000000 -0.000000 0.000000 0.000000 0.000000 -90.000000 0.000000 -2.309062 0.000000 0.000000 2.309062 0.000000 0.000000 -0.000000 0.000000 0.000000 -0.000000 90.000000 0.000000 -2.309062 0.000000 0.000000 2.309062 0.000000 0.000000 8.520406 0.000000 0.000000 1.905762 0.000000 -0.000000 -4.658285 0.000000 0.000000 -0.000000 0.000000 0.000000 8.520406 0.000000 0.000000 1.905762 0.000000 -0.000000 -4.658285 0.000000 0.000000 -0.000000 0.000000
-193.077678 57.688745 -62.096266 157.225568 -7.285094 0.350305 4.600428 3.525524 1.588416 0.135054 0.123819 0.051251 0.259783 0.212412 0.023046 4.106594 3.452755 0.916082 1.237115 17.851733 -1.219301 2.712854 -2.509193 -2.595683 0.468370 9.440860 0.595076 -8.152287 -7.290386 -3.908605 21.291056 -83.661101 -4.761632 -3.605419 2.654800 -28.073270 -3.231166 8.709238 -1.640422 17.303168 -3.566214 0.926697 53.321389 -77.426246 -83.890701 -1.032277 5.597967 13.728991 -16.245681 -64.299406 10.657551 -30.581507 72.010636 -30.995562 -2.809393 -6.172102 -2.297921 -0.268144 0.649808 -0.155523 -2.277977 -66.365613 20.317600 41.966400 65.911767 35.381819 -16.660864 -8.819442 2.529187 -0.198466 -1.053084 -0.057372
-193.076836 57.685640 -62.094999 157.210023 -7.277536 0.405069 4.602374 3.525519 1.566966 0.142787 0.121776 0.026916 0.252490 0.215252 0.047955 4.112630 3.453206 0.892606 1.260247 17.918691 -1.174556 2.706573 -2.531425 -2.646252 0.475803 9.445818 0.595360 -8.107099 -7.282408 -3.918946 23.169990 -83.633023 -6.650362 -3.437784 3.010618 -28.035049 -3.215845 8.716490 -1.634913 17.191902 -3.560073 0.903859 53.051499 -77.224553 -83.700259 -1.004385 5.567756 13.744019 -16.180560 -64.327717 10.576993 -30.560104 72.026864 -30.977090 -2.798949 -6.185624 -2.304289 -0.268970 0.660357 -0.162879 -2.164639 -66.366833 20.204025 41.972276 65.890243 35.386680 -16.699024 -8.751306 2.502914 -0.183535 -1.074304 -0.050187
-193.072374 57.682174 -62.092304 157.200025 -7.270586 0.445723 4.588986 3.527687 1.578849 0.150875 0.119759 0.005974 0.241934 0.220149 0.076883 4.117495 3.456924 0.866428 1.270975 17.937818 -1.194548 2.713152 -2.511900 -2.663052 0.514766 9.465889 0.595799 -8.066528 -7.294767 -3.952844 24.653655 -83.589979 -8.149300 -3.291975 3.314524 -27.990758 -3.191957 8.743697 -1.638446 17.092118 -3.568658 0.869029 52.767961 -77.018956 -83.519938 -0.977764 5.541492 13.762333 -16.207882 -64.351702 10.572803 -30.500512 72.052695 -30.941180 -2.769478 -6.179875 -2.311286 -0.295655 0.653438 -0.170466 -2.088195 -66.366957 20.126045 41.966892 65.868723 35.382961 -16.721297 -8.682766 2.470500 -0.166987 -1.117251 -0.035058
-193.059829 57.678542 -62.086500 157.210527 -7.265894 0.439308 4.576173 3.523350 1.590418 0.142839 0.122159 0.027303 0.242180 0.223849 0.076879 4.112080 3.468129 0.895775 1.269050 17.931739 -1.251082 2.766972 -2.374667 -2.673162 0.560491 9.489653 0.592877 -8.017096 -7.320348 -4.008600 25.252559 -83.571857 -8.804466 -3.123817 3.583207 -27.910499 -3.185215 8.751339 -1.679721 16.992198 -3.567617 0.858481 52.499444 -76.818169 -83.353085 -0.950869 5.524612 13.776667 -16.282601 -64.357526 10.619942 -30.500507 72.069104 -30.927418 -2.755757 -6.184393 -2.336747 -0.304207 0.649392 -0.168742 -2.131419 -66.364542 20.154631 42.009217 65.813361 35.442677 -16.781741 -8.611082 2.407988 -0.127678 -1.111407 -0.017950
-193.048851 57.675268 -62.083438 157.205642 -7.273722 0.454690 4.568767 3.539023 1.604150 0.143024 0.122687 0.027445 0.248214 0.221189 0.062081 4.114283 3.468281 0.890081 1.281100 17.965457 -1.236104 2.795922 -2.307379 -2.702989 0.591617 9.522273 0.628512 -7.970689 -7.345315 -4.060348 25.906184 -83.499508 -9.442198 -3.066669 3.750576 -27.864465 -3.185343 8.763282 -1.679499 16.908140 -3.557728 0.863628 52.204718 -76.628973 -83.179538 -0.926976 5.516259 13.779279 -16.268479 -64.356556 10.592045 -30.525050 72.082690 -30.907298 -2.788138 -6.209445 -2.392780 -0.260786 0.660213 -0.149578 -2.113317 -66.352785 20.134891 42.035721 65.783759 35.472314 -16.793831 -8.522227 2.368602 -0.143043 -1.132404 -0.011884
-193.039829 57.672160 -62.080263 157.189184 -7.277790 0.485287 4.563226 3.560330 1.625389 0.153377 0.116582 0.003129 0.253368 0.217578 0.049053 4.112182 3.478229 0.908254 1.301620 18.029694 -1.232608 2.802740 -2.300000 -2.746164 0.622508 9.547774 0.634723 -7.940070 -7.373447 -4.105469 25.939423 -83.423828 -9.435405 -3.030627 3.864287 -27.811532 -3.185256 8.766279 -1.703199 16.821902 -3.543132 0.872402 51.916026 -76.468870 -83.009820 -0.908159 5.512137 13.768163 -16.217155 -64.363154 10.542009 -30.527064 72.090862 -30.902842 -2.768105 -6.224002 -2.395626 -0.261300 0.674535 -0.148406 -2.054130 -66.344314 20.080418 42.062785 65.758728 35.498957 -16.784734 -8.442360 2.342996 -0.184590 -1.147341 -0.019265
-193.031671 57.669332 -62.076469 157.171966 -7.278201 0.521851 4.571028 3.571727 1.612969 0.143974 0.124394 0.027779 0.260008 0.210073 0.027177 4.112318 3.511389 0.933072 1.306669 18.034095 -1.273538 2.820307 -2.259331 -2.770298 0.644500 9.540365 0.610005 -7.939447 -7.401957 -4.130843 25.495423 -83.352477 -8.926664 -3.008908 3.953250 -27.734142 -3.207535 8.799388 -1.744165 16.752645 -3.574393 0.861943 51.650911 -76.353797 -82.850593 -0.896677 5.512756 13.743378 -16.186088 -64.376749 10.504206 -30.511362 72.105481 -30.893113 -2.738297 -6.232041 -2.393640 -0.282245 0.678643 -0.165522 -1.981542 -66.336681 20.012193 42.087603 65.726189 35.525294 -16.793776 -8.367569 2.316099 -0.137923 -1.148618 -0.018575
-193.021659 57.666742 -62.070448 157.171033 -7.272640 0.543591 4.565628 3.579347 1.608834 0.146857 0.118114 0.019894 0.255508 0.213726 0.040042 4.119145 3.523354 0.924696 1.314789 18.061976 -1.280423 2.821481 -2.263861 -2.784845 0.650883 9.537012 0.607348 -7.875022 -7.392076 -4.159771 24.690896 -83.293059 -8.107549 -3.007900 4.011070 -27.652239 -3.219230 8.805192 -1.757467 16.665921 -3.551570 0.873791 51.421501 -76.290044 -82.709906 -0.903334 5.520952 13.700815 -16.268409 -64.391132 10.545050 -30.445592 72.133278 -30.841448 -2.706928 -6.228304 -2.411675 -0.299834 0.667154 -0.175165 -1.954600 -66.333348 19.978110 42.105929 65.687475 35.547083 -16.818589 -8.306067 2.288639 -0.131188 -1.133249 -0.024313
-193.010964 57.664775 -62.065675 157.161901 -7.277383 0.568613 4.567270 3.601302 1.600238 0.146803 0.122053 0.024440 0.260725 0.208750 0.038580 4.120192 3.517626 0.909887 1.324783 18.105728 -1.278190 2.847438 -2.205260 -2.807112 0.669044 9.568485 0.632736 -7.763198 -7.371272 -4.225190 23.644601 -83.260248 -7.103337 -3.019987 4.051615 -27.567782 -3.241203 8.855226 -1.760596 16.590175 -3.549806 0.871434 51.230224 -76.276832 -82.588546 -0.932890 5.539641 13.631903 -16.272083 -64.394568 10.533583 -30.438027 72.146143 -30.826148 -2.697431 -6.238351 -2.433438 -0.295430 0.669886 -0.176250 -1.919953 -66.322077 19.944329 42.123618 65.656881 35.562848 -16.817260 -8.210987 2.259034 -0.124519 -1.152647 -0.022405
-193.000025 57.663072 -62.059599 157.155235 -7.277040 0.592661 4.569020 3.611343 1.584157 0.141001 0.136866 0.035888 0.256933 0.224181 0.049172 4.129271 3.512133 0.890729 1.332852 18.129489 -1.286095 2.874089 -2.145114 -2.828374 0.682321 9.569323 0.641966 -7.714623 -7.363862 -4.260671 22.698191 -83.201884 -6.136904 -3.035045 4.087416 -27.479037 -3.258935 8.884612 -1.767536 16.512982 -3.540740 0.861280 51.071186 -76.308797 -82.479828 -0.979050 5.568659 13.531204 -16.281695 -64.403142 10.527483 -30.420060 72.160387 -30.800299 -2.692618 -6.246002 -2.460701 -0.296299 0.670428 -0.172275 -1.894470 -66.313183 19.918147 42.139335 65.624153 35.573684 -16.828125 -8.127792 2.233662 -0.121203 -1.159647 -0.024384
-192.988339 57.661546 -62.051870 157.143282 -7.270387 0.613538 4.576803 3.615671 1.572110 0.140044 0.138143 0.036045 0.252926 0.238943 0.057543 4.134299 3.522610 0.885841 1.338184 18.154416 -1.294176 2.880323 -2.156496 -2.841970 0.684999 9.543857 0.633359 -7.663241 -7.325246 -4.280961 21.842505 -83.148157 -5.264890 -3.044524 4.124061 -27.391455 -3.301569 8.969971 -1.788986 16.457256 -3.581351 0.841874 50.931709 -76.371688 -82.372462 -1.038608 5.602834 13.398055 -16.296932 -64.416421 10.534575 -30.391389 72.172294 -30.762597 -2.691071 -6.248460 -2.490352 -0.293262 0.669495 -0.157325 -1.871835 -66.309455 19.900751 42.155448 65.589831 35.583064 -16.828939 -8.050255 2.211304 -0.147432 -1.134632 -0.034930
-192.972666 57.660260 -62.042666 157.133364 -7.265654 0.613029 4.570601 3.655174 1.601826 0.152097 0.105692 0.014942 0.249650 0.257113 0.065576 4.134079 3.531909 0.881816 1.346400 18.180746 -1.304398 2.888607 -2.171384 -2.855828 0.699366 9.542557 0.634091 -7.623733 -7.310227 -4.305196 21.159325 -83.101234 -4.566536 -3.047900 4.164420 -27.314749 -3.330797 9.026144 -1.813189 16.391389 -3.585810 0.830102 50.811810 -76.451047 -82.271958 -1.107749 5.640360 13.234901 -16.357979 -64.419800 10.583908 -30.405519 72.179259 -30.735895 -2.711223 -6.254502 -2.545398 -0.242348 0.663370 -0.149645 -1.893185 -66.303333 19.931185 42.169596 65.553565 35.591509 -16.818626 -7.977698 2.190314 -0.168600 -1.160383 -0.037930
-192.959979 57.659381 -62.036426 157.111826 -7.270689 0.641389 4.581660 3.698652 1.595754 0.153975 0.100849 0.012619 0.253102 0.241476 0.055971 4.121565 3.607225 0.894331 1.358865 18.139378 -1.326343 2.925322 -2.040064 -2.877296 0.722189 9.493102 0.628007 -7.600083 -7.311087 -4.326028 20.680674 -83.047715 -4.066002 -3.043556 4.208089 -27.253018 -3.344594 9.012434 -1.840740 16.320202 -3.563790 0.818910 50.714681 -76.537135 -82.190076 -1.178839 5.680798 13.048634 -16.349926 -64.419812 10.574388 -30.400248 72.183171 -30.721921 -2.699157 -6.265663 -2.576945 -0.235290 0.669248 -0.141801 -1.831455 -66.290864 19.886704 42.170769 65.533329 35.587335 -16.798942 -7.896796 2.176465 -0.167536 -1.173896 -0.042546
